<?xml version="1.0"?>
<svg width="1280" height="1006" xmlns="http://www.w3.org/2000/svg" xmlns:svg="http://www.w3.org/2000/svg" preserveAspectRatio="xMidYMid meet">
 <metadata>Created by potrace 1.15, written by Peter Selinger 2001-2017</metadata>
 <g class="layer">
  <title>Layer 1</title>
  <path d="m200.598379,17.626635c-0.939902,0.685541 -2.652948,2.689429 -4.62371,5.378858c-2.001081,2.707007 -5.63941,6.855408 -8.428796,9.597571c-10.869509,10.669827 -27.514865,23.941194 -42.72005,34.030948c-10.141843,6.732362 -24.513243,14.783072 -31.89602,17.841638c-5.321057,2.197246 -8.944226,2.478494 -11.157543,0.843743c-1.243096,-0.914054 -2.06172,-2.091778 -3.410934,-4.921831c-1.273415,-2.671851 -2.07688,-3.919887 -3.714128,-5.80073c-1.136978,-1.318348 -1.713047,-1.828109 -2.698428,-2.42576c-1.136978,-0.650385 -1.379533,-0.738275 -2.319435,-0.738275c-1.955602,0 -6.276118,1.283192 -8.853268,2.636695c-1.849484,0.966788 -1.667568,1.494127 1.091499,3.146456c1.394693,0.843743 2.07688,1.599595 2.304275,2.601539c0.212236,0.878898 0.212236,1.12499 -0.060639,2.935521c-0.576069,3.796841 -2.07688,5.730418 -4.456953,5.730418c-1.318894,0 -2.486192,-0.386715 -4.63887,-1.529283c-6.488354,-3.445282 -13.113145,-5.343703 -28.348649,-8.1386c-6.837027,-1.265614 -13.188944,-2.935521 -16.311843,-4.289024c-2.56199,-1.107412 -5.624251,-3.63864 -8.625872,-7.119077c-2.652948,-3.058567 -4.320516,-5.660106 -5.897125,-9.122966c-1.227936,-2.724585 -2.334595,-3.603484 -2.834865,-2.232402c-0.667027,1.863265 0.394152,5.71284 2.652948,9.685461c3.031941,5.290969 7.231179,10.001864 13.204103,14.765494c0.955061,0.755853 2.380074,2.109356 3.183538,2.970677c2.395233,2.654273 5.13914,4.464804 20.874914,13.781128c9.232261,5.44917 12.021646,7.294857 12.779632,8.402269c0.257715,0.386715 0.318354,0.650385 0.257715,1.21288c-0.030319,0.404293 0,0.86132 0.075799,1.0371c0.212236,0.404293 1.04602,0.791009 1.773686,0.791009c0.727666,0 1.076339,0.140624 1.076339,0.439449c0,0.105468 -0.348673,0.667963 -0.757985,1.21288c-1.819165,2.408182 -1.622088,3.19919 0.697346,2.777319c1.970762,-0.351559 3.289656,0.457027 4.10828,2.548805c0.560909,1.423815 0.712506,2.882787 0.53059,5.097611c-0.242555,3.128878 0.106118,4.535116 1.227936,4.869097c1.318894,0.386715 2.819705,-0.931632 5.730369,-4.992143c1.182457,-1.652329 2.152678,-2.988255 2.182998,-2.988255c0.030319,0 0.439631,1.318348 0.894423,2.953099c1.0157,3.621062 1.349214,5.660106 1.288575,7.734306c-0.060639,1.529283 -0.075799,1.582017 -0.727666,2.601539c-1.273415,1.98631 -5.836487,7.031188 -11.005946,12.19911c-2.273956,2.285136 -5.1543,5.53706 -5.836487,6.591738c-1.258256,1.951155 -1.54629,3.216768 -1.152138,4.992143c0.424472,1.898421 1.000541,2.478494 2.501351,2.478494c0.636708,0 0.803464,0.070312 1.136978,0.527339c0.394152,0.544917 0.469951,0.984366 0.606388,3.339814c0.212236,3.392548 1.349214,5.097611 3.698968,5.53706c0.970221,0.17578 1.091499,0.597651 1.061179,3.55075c-0.01516,2.091778 0.030319,2.601539 0.318354,3.603484c0.576069,2.021466 1.56145,3.216768 3.031941,3.656218c0.53059,0.158202 0.924742,0.140624 2.06172,-0.08789c2.152678,-0.457027 2.289115,-0.281248 2.471032,3.093723c0.106118,1.792953 0.197076,2.214824 0.576069,3.093723c0.363833,0.843743 0.576069,1.089834 1.273415,1.511705c0.727666,0.439449 0.939902,0.492183 1.682727,0.404293c0.485111,-0.052734 1.394693,-0.369137 2.07688,-0.720697c0.667027,-0.333981 1.334054,-0.615229 1.470491,-0.615229c0.469951,0 0.970221,0.826165 1.364373,2.33787c0.682187,2.583961 1.273415,3.234346 3.229017,3.480438c0.636708,0.08789 1.425012,0.193358 1.743366,0.26367c0.667027,0.123046 1.470491,0.843743 1.470491,1.318348c0,0.17578 0.166757,0.457027 0.378993,0.615229c0.394152,0.298825 0.833784,0.298825 4.350835,-0.035156c1.606929,-0.158202 2.152678,0 2.925823,0.826165c1.03086,1.107412 2.001081,1.30077 3.274496,0.667963c0.560909,-0.281248 0.848943,-0.580073 1.182457,-1.230458c0.697346,-1.30077 1.0157,-1.423815 3.501892,-1.353504c1.925283,0.052734 2.122359,0.017578 2.531671,-0.316403c0.621548,-0.544917 1.152138,-1.511705 1.940442,-3.585906c0.879263,-2.355448 1.243096,-2.900365 1.788845,-2.742163c0.227396,0.052734 0.788305,0.509761 1.243096,0.984366c1.076339,1.142568 1.894963,1.599595 2.789386,1.617173c0.879263,0 1.54629,-0.369137 2.031401,-1.12499c0.560909,-0.878898 0.727666,-1.634751 0.848943,-3.63864c0.166757,-2.601539 0.197076,-2.619117 2.728747,-1.318348c2.334595,1.177724 4.290197,0.843743 5.017862,-0.896476c0.166757,-0.404293 0.303194,-0.966788 0.303194,-1.265614c0,-0.615229 0.454791,-1.353504 1.03086,-1.705063c0.227396,-0.123046 0.818624,-0.281248 1.303735,-0.351559c1.167297,-0.158202 2.06172,-0.615229 2.531671,-1.318348c0.939902,-1.423815 1.243096,-1.757797 1.985921,-2.126934c0.51543,-0.26367 1.288575,-0.439449 2.243636,-0.527339c1.910123,-0.17578 2.683268,-0.439449 3.274496,-1.12499c0.697346,-0.808587 0.894423,-1.775375 0.606388,-3.093723c-0.363833,-1.669907 -1.03086,-2.988255 -3.047101,-6.064399c-1.04602,-1.599595 -1.894963,-2.917943 -1.894963,-2.970677c0,-0.035156 1.136978,-0.105468 2.54683,-0.123046c2.516511,-0.070312 2.54683,-0.070312 3.562531,-0.650385c1.637248,-0.931632 2.152678,-2.355448 1.455332,-4.025355c-0.166757,-0.421871 -0.560909,-1.001944 -0.864103,-1.283192c-1.04602,-1.001944 -5.700049,-3.498016 -13.446659,-7.206967c-6.003243,-2.865209 -8.519754,-4.183557 -12.264202,-6.380803c-5.16946,-3.023411 -8.307519,-5.378858 -10.005405,-7.505793c-1.091499,-1.371082 -1.288575,-2.091778 -0.939902,-3.357392c0.348673,-1.21288 1.318894,-3.445282 2.167838,-4.992143c0.651867,-1.160146 5.184619,-8.349535 5.260418,-8.349535c0.030319,0 1.136978,0.738275 2.486192,1.652329c2.486192,1.669907 3.532211,2.16209 4.10828,1.951155c0.181916,-0.052734 0.606388,-0.544917 0.939902,-1.072256c0.363833,-0.544917 0.742826,-0.94921 0.909582,-0.94921c0.166757,0 0.53059,0.369137 0.848943,0.878898c0.818624,1.265614 1.136978,1.21288 2.228477,-0.333981c0.879263,-1.248036 1.425012,-1.775375 1.819165,-1.775375c0.409312,0 2.228477,-1.21288 3.789926,-2.531228c3.486732,-2.953099 6.473194,-6.134711 7.125061,-7.611261c0.606388,-1.406238 0.833784,-1.546861 2.364914,-1.546861c1.212776,0 1.379533,-0.035156 1.743366,-0.439449c0.212236,-0.246092 0.51543,-0.703119 0.636708,-1.0371c0.409312,-0.984366 1.000541,-1.283192 2.213317,-1.160146c1.152138,0.123046 1.622088,-0.123046 1.622088,-0.86132c0,-0.527339 0.667027,-2.126934 1.243096,-2.988255c0.272875,-0.386715 1.152138,-1.529283 1.955602,-2.496072c1.54629,-1.898421 2.380074,-3.146456 2.54683,-3.902309c0.197076,-0.86132 0.727666,-1.107412 2.834865,-1.353504c2.728747,-0.316403 3.031941,-0.492183 2.759066,-1.582017c-0.181916,-0.791009 -0.151597,-0.966788 0.227396,-1.12499c1.394693,-0.615229 6.518673,-6.363225 16.812113,-18.843583c3.987002,-4.851519 6.609632,-7.435481 8.838108,-8.718673c1.743366,-1.019522 3.456413,-2.267558 4.062801,-2.988255c0.50027,-0.562495 0.576069,-0.738275 0.485111,-1.195302c-0.333514,-1.845687 -0.303194,-2.0742 0.363833,-2.970677c0.848943,-1.12499 1.364373,-2.373026 1.54629,-3.691373c0.288034,-2.003888 1.349214,-3.427704 3.820246,-5.044877c2.092039,-1.371082 3.517052,-2.566383 4.335676,-3.603484c0.985381,-1.248036 1.03086,-1.546861 0.454791,-3.1113c-0.621548,-1.705063 -0.560909,-2.179668 0.53059,-3.831997c0.454791,-0.703119 0.879263,-1.511705 0.939902,-1.810531c0.075799,-0.439449 0.030319,-0.580073 -0.394152,-0.984366c-0.424472,-0.404293 -0.485111,-0.597651 -0.636708,-1.845687c-0.075799,-0.773431 -0.121278,-2.285136 -0.075799,-3.339814c0.030319,-1.072256 0.030319,-2.039044 0,-2.16209c-0.106118,-0.316403 -0.50027,-0.26367 -1.53113,0.228514c-0.51543,0.246092 -1.106658,0.439449 -1.303735,0.439449c-1.121818,0 -1.804005,-2.953099 -1.212776,-5.255813c0.378993,-1.529283 0.121278,-1.757797 -1.0157,-0.914054z" fill="black" id="svg_2" stroke-width="99"/>
 </g>
</svg>